<svg xmlns="http://www.w3.org/2000/svg" viewBox="0 0 1008 1008"><path d="M 599.65 123.37 C 598.82 123.43, 554.92 123.57, 502.10 123.68 C 417.01 123.87, 405.24 123.98, 398.76 124.72 C 376.93 127.21, 352.85 132.01, 333.73 137.70 C 319.60 141.90, 298.89 148.98, 290.34 152.54 C 278.05 157.65, 268.81 162.12, 255.72 169.30 C 229.45 183.70, 213.95 193.68, 198.12 206.39 C 190.61 212.41, 177.54 223.81, 169.64 231.22 C 154.40 245.50, 137.45 264.55, 123.53 283.04 C 116.32 292.62, 111.23 300.34, 102.73 314.57 C 91.93 332.68, 85.06 345.81, 78.89 360.19 C 73.81 372.02, 64.09 400.35, 59.78 415.86 C 55.11 432.66, 51.06 453.06, 48.95 470.34 C 47.02 486.20, 46.29 498.27, 46.28 514.71 C 46.26 536.04, 47.50 555.88, 49.96 573.69 C 52.00 588.41, 57.08 610.96, 62.34 628.64 C 64.91 637.27, 75.58 667.56, 78.14 673.48 C 80.81 679.66, 88.82 696.02, 92.22 702.24 C 93.97 705.43, 100.14 715.64, 105.95 724.92 C 113.99 737.77, 118.41 744.23, 124.42 751.93 C 139.01 770.60, 147.66 780.28, 165.16 797.52 C 179.80 811.94, 186.39 817.82, 197.11 826.07 C 216.12 840.69, 224.56 846.65, 236.07 853.57 C 245.10 859.00, 265.88 869.74, 278.94 875.73 C 301.14 885.92, 323.45 893.70, 343.56 898.26 C 374.59 905.30, 390.98 908.08, 409.85 909.49 C 421.63 910.37, 468.59 910.39, 477.15 909.52 C 494.61 907.74, 514.81 904.40, 532.60 900.36 C 540.09 898.66, 548.14 896.72, 550.50 896.07 C 564.64 892.10, 586.08 884.39, 598.33 878.84 C 602.94 876.76, 614.53 871.11, 624.10 866.29 C 636.58 860.00, 644.35 855.71, 651.61 851.09 C 663.36 843.61, 672.27 837.43, 680.92 830.75 C 684.31 828.14, 689.53 824.14, 692.52 821.87 C 695.51 819.59, 699.54 816.33, 701.48 814.62 C 709.40 807.63, 738.66 778.17, 743.74 772.06 C 751.50 762.75, 767.16 741.76, 773.67 731.98 C 782.13 719.25, 786.91 710.93, 795.23 694.42 C 805.45 674.17, 810.28 662.98, 816.15 646.03 C 822.69 627.11, 828.67 601.95, 833.53 572.93 C 837.16 551.18, 837.95 532.54, 836.85 494.54 C 836.40 479.00, 835.82 473.02, 833.03 454.97 C 831.35 444.09, 825.10 414.08, 822.93 406.49 C 820.12 396.63, 814.12 379.24, 809.21 366.75 C 803.58 352.41, 802.23 348.51, 802.70 348.04 C 803.29 347.44, 856.08 346.90, 917.12 346.87 L 973.96 346.83 973.96 312.98 L 973.96 279.13 882.08 279.46 C 831.55 279.64, 717.05 279.84, 627.63 279.90 C 538.21 279.96, 455.64 280.17, 444.13 280.35 C 422.57 280.69, 413.04 281.35, 401.53 283.32 C 393.05 284.76, 368.44 290.92, 361.20 293.41 C 344.30 299.22, 326.86 308.06, 308.77 319.98 C 298.66 326.65, 293.04 330.81, 286.04 336.81 C 263.15 356.44, 245.10 379.00, 230.22 406.57 C 227.82 411.01, 224.51 417.75, 222.86 421.56 C 219.22 429.96, 211.49 453.25, 209.03 463.29 C 206.94 471.78, 205.60 479.28, 204.35 489.50 C 203.64 495.25, 203.45 500.58, 203.46 514.45 C 203.47 524.47, 203.74 534.93, 204.09 538.65 C 205.97 558.46, 209.85 575.75, 217.45 598.16 C 221.05 608.78, 224.12 615.91, 229.47 626.10 C 233.82 634.39, 236.53 638.76, 243.40 648.55 C 254.69 664.65, 258.96 669.86, 269.43 680.33 C 284.19 695.09, 298.77 707.36, 309.41 713.97 C 314.82 717.33, 328.52 724.87, 336.00 728.59 C 346.66 733.90, 358.53 738.76, 369.28 742.22 C 381.36 746.11, 389.51 748.08, 401.78 750.07 C 417.23 752.57, 420.78 752.81, 442.11 752.83 C 460.45 752.85, 463.38 752.74, 470.85 751.74 C 494.55 748.55, 510.42 744.63, 528.82 737.42 C 543.81 731.55, 563.23 721.48, 576.95 712.46 C 590.65 703.45, 596.49 698.58, 612.43 682.85 C 624.75 670.70, 630.22 664.56, 636.26 656.11 C 643.90 645.43, 651.70 632.18, 657.91 619.31 C 665.80 603.00, 670.17 590.93, 674.50 573.48 C 677.46 561.58, 679.23 551.51, 680.11 541.68 C 680.49 537.44, 680.74 526.57, 680.73 514.45 C 680.72 491.81, 680.42 488.42, 677.02 471.35 C 673.75 455.01, 669.98 442.92, 663.06 426.62 C 659.01 417.06, 654.04 407.27, 647.54 395.99 C 639.28 381.64, 632.66 372.39, 624.29 363.47 C 619.21 358.05, 614.35 352.50, 612.33 349.80 L 610.97 347.97 613.88 347.66 C 615.48 347.49, 640.97 347.20, 670.53 347.02 L 724.27 346.68 726.80 351.17 C 734.32 364.52, 745.67 389.72, 751.61 406.27 C 754.92 415.50, 757.22 423.50, 759.92 435.23 C 764.38 454.55, 767.36 471.98, 768.77 486.98 C 769.07 490.17, 769.45 499.92, 769.62 508.66 C 770.07 532.22, 768.96 548.38, 765.45 569.40 C 762.65 586.12, 757.99 606.07, 754.11 617.93 C 751.00 627.42, 745.67 640.88, 741.19 650.57 C 737.22 659.16, 727.57 677.62, 723.05 685.28 C 718.93 692.25, 709.10 706.53, 703.07 714.29 C 694.72 725.05, 683.98 737.19, 674.04 747.13 C 660.57 760.60, 647.11 772.00, 631.30 783.32 C 621.34 790.44, 617.23 793.06, 606.20 799.29 C 585.00 811.28, 569.45 818.64, 552.38 824.77 C 542.33 828.38, 539.00 829.39, 527.81 832.24 C 514.64 835.60, 503.13 838.03, 491.95 839.83 C 476.02 842.39, 472.03 842.64, 445.64 842.63 C 426.05 842.63, 419.29 842.45, 411.61 841.73 C 393.23 839.99, 380.86 837.88, 360.45 832.98 C 339.81 828.02, 330.35 824.81, 311.24 816.25 C 297.60 810.14, 290.67 806.62, 277.52 799.14 C 260.40 789.39, 253.72 784.69, 232.40 767.37 C 224.70 761.11, 218.49 755.48, 210.96 747.92 C 199.65 736.56, 187.40 723.20, 182.24 716.61 C 177.91 711.07, 161.25 686.20, 156.92 678.80 C 152.57 671.38, 145.68 657.93, 142.59 650.82 C 139.48 643.70, 135.08 632.17, 131.81 622.62 C 124.52 601.31, 120.97 586.56, 116.64 559.57 L 114.82 548.23 114.58 527.81 C 114.32 507.01, 114.78 494.01, 116.19 481.69 C 119.02 457.00, 122.94 439.15, 130.53 416.40 C 142.00 382.00, 152.76 360.27, 172.84 330.96 C 182.30 317.16, 193.86 303.34, 208.45 288.41 C 218.17 278.46, 227.40 270.08, 238.28 261.31 C 249.16 252.55, 250.87 251.30, 260.88 244.92 C 288.15 227.52, 303.85 219.48, 325.96 211.56 C 339.99 206.54, 356.92 201.21, 366.07 198.92 C 370.13 197.91, 379.55 195.82, 386.99 194.28 L 400.52 191.49 665.94 191.27 C 811.92 191.15, 940.95 190.91, 952.66 190.74 L 973.96 190.44 973.96 156.66 L 973.96 122.88 787.56 123.07 C 685.04 123.17, 600.48 123.31, 599.65 123.37 M 420.18 348.62 C 405.34 350.59, 382.83 356.97, 371.01 362.56 C 357.12 369.14, 340.90 379.87, 327.43 391.39 C 315.44 401.65, 298.51 423.16, 290.69 438.08 C 285.34 448.30, 279.77 463.32, 276.21 477.18 C 274.85 482.47, 273.40 489.05, 272.98 491.80 C 271.25 503.13, 271.55 531.90, 273.51 543.33 C 275.37 554.13, 279.42 568.64, 283.67 579.74 C 288.08 591.24, 293.96 602.34, 300.90 612.25 C 307.47 621.64, 320.75 636.45, 329.18 643.79 C 334.36 648.30, 346.03 656.48, 355.35 662.13 C 364.41 667.62, 377.83 673.83, 388.42 677.43 C 403.24 682.46, 419.22 685.24, 437.07 685.89 C 447.52 686.27, 464.03 685.49, 471.10 684.29 C 477.73 683.17, 485.70 681.01, 496.42 677.45 C 503.27 675.17, 508.46 673.02, 515.21 669.66 C 529.96 662.31, 543.10 653.95, 552.77 645.76 C 554.98 643.88, 560.78 638.29, 565.64 633.35 C 577.31 621.48, 584.10 612.40, 592.48 597.42 C 598.49 586.69, 602.76 576.66, 606.13 565.37 C 612.10 545.37, 614.04 529.07, 613.03 507.40 C 612.74 501.30, 612.16 494.17, 611.74 491.57 C 608.65 472.64, 604.22 459.62, 594.01 439.47 C 588.74 429.06, 581.62 417.86, 575.35 410.10 C 567.77 400.73, 551.43 385.69, 539.94 377.53 C 533.45 372.92, 522.50 366.39, 515.41 362.92 C 507.03 358.82, 493.16 354.30, 479.17 351.12 C 466.56 348.25, 461.83 347.84, 442.47 347.90 C 431.36 347.94, 423.43 348.19, 420.18 348.62" fill="#ffffff" fill-rule="evenodd"/></svg>
